<?xml version="1.0" encoding="UTF-8"?>
<svg id="Layer_1" data-name="Layer 1" xmlns="http://www.w3.org/2000/svg" version="1.1" viewBox="0 0 103 42">
  <defs>
    <style>
      .cls-1 {
        fill: #df4b2e;
      }

      .cls-1, .cls-2 {
        stroke-width: 0px;
      }

      .cls-2 {
        fill: #fff;
      }
    </style>
  </defs>
  <g id="Group">
    <path id="Shape" class="cls-2" d="M5.487,18.193h3.701v-.998h-3.701v-4.429l-2.453,1.435v2.994H.559v.998h2.453v8.691c0,2.142,1.185,3.431,3.639,3.431.749,0,1.601-.187,2.266-.416v-1.102c-.374.104-.998.187-1.331.187-1.788,0-2.079-.977-2.121-2.35l.021-8.442h0Z"/>
    <path id="Shape-2" data-name="Shape" class="cls-2" d="M60.066,18.193h3.701v-.998h-3.701v-4.429l-2.453,1.435v2.994h-2.474v.998h2.453v8.691c0,2.142,1.185,3.431,3.639,3.431.749,0,1.601-.187,2.266-.416v-1.102c-.374.104-.998.187-1.331.187-1.788,0-2.079-.977-2.121-2.35v-8.442h.021Z"/>
    <rect id="Rectangle-path" class="cls-2" x="49.753" y="17.195" width="2.453" height="12.766"/>
    <circle id="Oval" class="cls-2" cx="50.98" cy="12.351" r="1.539"/>
    <path id="Shape-3" data-name="Shape" class="cls-2" d="M38.11,27.945c.998.728,2.412,1.351,3.847,1.351,1.476,0,2.869-.852,2.869-2.474,0-3.41-6.965-1.393-6.965-6.05,0-2.391,1.767-4.138,4.907-4.138,1.455,0,3.285.769,3.285.769l-.499,1.372c-.79-.665-1.975-1.123-3.16-1.123-1.144,0-2.516.686-2.516,2.308,0,3.576,6.965,1.372,6.965,6.009,0,2.079-2.038,4.346-5.323,4.346-1.809,0-2.973-.457-3.805-.915l.395-1.455Z"/>
    <path id="Shape-4" data-name="Shape" class="cls-2" d="M26.778,27.945c.998.728,2.412,1.351,3.847,1.351,1.476,0,2.869-.852,2.869-2.474,0-3.41-6.965-1.393-6.965-6.05,0-2.391,1.767-4.138,4.907-4.138,1.455,0,3.285.769,3.285.769l-.499,1.372c-.79-.665-1.975-1.123-3.16-1.123-1.144,0-2.516.686-2.516,2.308,0,3.576,6.965,1.372,6.965,6.009,0,2.079-2.038,4.346-5.323,4.346-1.809,0-2.973-.457-3.805-.915l.395-1.455Z"/>
    <path id="Shape-5" data-name="Shape" class="cls-2" d="M76.222,27.674c-.998,1.705-2.745,2.641-4.616,2.641-3.077,0-4.928-1.643-4.928-4.512v-8.629h2.453v7.568c0,1.809.395,2.661.873,3.16.541.541,1.331.977,2.412.977,1.58,0,2.641-.728,3.119-1.684.561-1.04.541-1.788.561-2.703v-7.319h2.495v12.725h-2.453v-2.474"/>
    <path id="Shape-6" data-name="Shape" class="cls-2" d="M88.635,16.779c-1.83,0-3.535.894-4.533,2.537v-2.121h-2.453v12.704h2.495v-7.319c0-.915.021-1.663.561-2.703.374-.728,1.601-1.455,3.14-1.144.333.062.811.27.811.27v-2.225h-.021Z"/>
    <path id="Shape-7" data-name="Shape" class="cls-2" d="M101.817,29.13c-1.144,0-1.04-1.102-1.04-2.017v-6.425c0-2.453-1.954-4.075-4.782-4.075-1.455,0-2.807.312-4.408,1.372v1.622c1.081-1.102,2.142-1.85,3.701-1.85,2.37,0,3.015,1.622,3.015,3.451h0v.749c-.395.291-1.435.395-4.117,1.06-2.786.582-4.242,1.663-4.242,3.867,0,2.079,1.954,3.368,3.93,3.368,2.017,0,3.223-.686,4.637-1.996.125.936.769,1.705,2.038,1.705.769,0,1.476-.229,1.892-.374v-.603c-.208.146-.437.146-.624.146ZM94.935,29.151c-1.31,0-2.578-.873-2.578-2.62,0-2.703,3.826-2.807,5.926-3.368v4.221c-.686.977-1.934,1.767-3.348,1.767Z"/>
    <path id="Shape-8" data-name="Shape" class="cls-2" d="M23.472,23.142c.021-.291.042-.582.042-.894,0-3.056-1.975-5.593-6.113-5.593-4.346,0-6.757,2.765-6.757,7.215,0,3.659,2.932,6.446,7.173,6.446,1.767,0,3.763-.852,4.969-1.705v-1.393c-1.04,1.102-2.869,1.954-4.429,1.954-3.285,0-5.115-2.225-5.115-5.073,0-.25,0-.665.021-.936h10.209v-.021h0ZM17.463,17.507c2.994,0,3.597,2.682,3.639,4.616h-7.776c.187-1.954,1.289-4.616,4.138-4.616Z"/>
  </g>
  <path id="Shape-9" data-name="Shape" class="cls-1" d="M17.879,6.508v1.767C27.963,3.659,39.17,1.081,50.98,1.081s23.038,2.578,33.122,7.194v-1.767C73.872,2.412,62.686.146,50.98.146S28.109,2.391,17.879,6.508Z"/>
</svg>